<?xml version="1.0" encoding="UTF-8"?>
<svg version="1.1" xmlns="http://www.w3.org/2000/svg" width="1280" height="1280">
<path d="M0 0 C422.4 0 844.8 0 1280 0 C1280 422.4 1280 844.8 1280 1280 C857.6 1280 435.2 1280 0 1280 C0 857.6 0 435.2 0 0 Z " fill="#FEFEFE" transform="translate(0,0)"/>
<path d="M0 0 C0 55.77 0 111.54 0 169 C-16.83 169 -33.66 169 -51 169 C-51 149.2 -51 129.4 -51 109 C-88.95 109 -126.9 109 -166 109 C-166 128.8 -166 148.6 -166 169 C-182.83 169 -199.66 169 -217 169 C-217 113.56 -217 58.12 -217 1 C-181 1 -181 1 -174 4 C-172.5625 6.1875 -172.5625 6.1875 -172 8 C-171.34 8 -170.68 8 -170 8 C-160.38230797 24.02948672 -167 45.30656681 -167 64 C-128.72 64 -90.44 64 -51 64 C-51 48.82 -51 33.64 -51 18 C-42.72068848 -6.83793455 -28.01030513 0 0 0 Z " fill="#042260" transform="translate(282,550)"/>
<path d="M0 0 C1.34094727 -0.00483398 1.34094727 -0.00483398 2.70898438 -0.00976562 C16.66708133 0.10255264 28.34563404 5.64346836 38.4375 15.3125 C44.48527397 22.16917163 49.1237219 30.21736859 53.609375 38.140625 C55.71653462 41.79663699 57.93892304 45.36738333 60.1875 48.9375 C64.38610422 55.60791528 68.5039742 62.32400383 72.59033203 69.0637207 C75.3826622 73.64968278 78.25961438 78.13951896 81.4140625 82.48828125 C82.66533634 84.71860523 83.04819949 86.7993489 83.4375 89.3125 C84.0975 89.3125 84.7575 89.3125 85.4375 89.3125 C88.4375 95.0625 88.4375 95.0625 88.4375 97.3125 C89.0975 97.3125 89.7575 97.3125 90.4375 97.3125 C91.12109375 99.03776042 91.8046875 100.76302083 92.48828125 102.48828125 C93.33342367 104.35054214 93.33342367 104.35054214 94.78125 105.6015625 C97.27644613 108.17914718 98.87806636 111.26969119 100.625 114.375 C100.99302734 115.01244141 101.36105469 115.64988281 101.74023438 116.30664062 C104.4375 121.05562964 104.4375 121.05562964 104.4375 123.3125 C105.0975 123.3125 105.7575 123.3125 106.4375 123.3125 C108.47919485 126.21798882 109.4375 127.71392046 109.4375 131.3125 C110.0975 131.3125 110.7575 131.3125 111.4375 131.3125 C111.76363281 131.90417969 112.08976563 132.49585938 112.42578125 133.10546875 C114.3162122 136.52385864 116.19836796 139.92494117 118.25 143.25 C119.4375 145.3125 119.4375 145.3125 119.4375 147.3125 C120.0975 147.3125 120.7575 147.3125 121.4375 147.3125 C121.98019531 148.27671875 122.52289062 149.2409375 123.08203125 150.234375 C123.8045425 151.51049877 124.52720683 152.78653588 125.25 154.0625 C125.60642578 154.69671875 125.96285156 155.3309375 126.33007812 155.984375 C127.84431472 158.65165414 129.3127391 161.15205361 131.19921875 163.578125 C132.4375 165.3125 132.4375 165.3125 132.4375 168.3125 C79.6375 168.3125 26.8375 168.3125 -27.5625 168.3125 C-27.5625 146.12271898 -27.5625 146.12271898 -21.5625 138.3125 C-20.5725 137.9825 -19.5825 137.6525 -18.5625 137.3125 C-18.10230469 136.38630859 -18.10230469 136.38630859 -17.6328125 135.44140625 C-16.30555511 132.80142348 -14.89832479 131.8576817 -12.4375 130.25 C-11.71304688 129.76402344 -10.98859375 129.27804687 -10.2421875 128.77734375 C-2.80431545 124.7114516 3.14138977 123.88837348 11.5 124.01953125 C12.53189453 124.02377609 13.56378906 124.02802094 14.62695312 124.03239441 C17.89740967 124.04908199 21.16723217 124.08671605 24.4375 124.125 C26.66535563 124.14005964 28.893221 124.1537458 31.12109375 124.16601562 C36.5601093 124.1989529 41.99875933 124.2490525 47.4375 124.3125 C45.38309898 120.15281608 43.20459069 116.18829866 40.75 112.25 C40.03244764 111.09511697 39.31500255 109.94016728 38.59765625 108.78515625 C38.23559082 108.2039502 37.87352539 107.62274414 37.50048828 107.02392578 C35.88304481 104.4198195 34.28723328 101.80251285 32.6875 99.1875 C30.24975517 95.21397592 27.77661076 91.26753065 25.265625 87.33984375 C24.71616211 86.4782666 24.16669922 85.61668945 23.60058594 84.72900391 C22.50357324 83.0113384 21.40274003 81.29610613 20.29785156 79.58349609 C19.79737305 78.7992627 19.29689453 78.0150293 18.78125 77.20703125 C18.32943359 76.50425049 17.87761719 75.80146973 17.41210938 75.07739258 C16.4375 73.3125 16.4375 73.3125 16.4375 71.3125 C15.7775 71.3125 15.1175 71.3125 14.4375 71.3125 C14.08558594 70.56226563 13.73367188 69.81203125 13.37109375 69.0390625 C10.01654293 62.08471956 6.4966681 55.20617006 1.4375 49.3125 C0.7775 49.3125 0.1175 49.3125 -0.5625 49.3125 C-2.36632174 51.90276305 -4.04003284 54.49893259 -5.6875 57.1875 C-6.20666992 58.0223291 -6.72583984 58.8571582 -7.26074219 59.71728516 C-9.03597499 62.57749787 -10.79959718 65.44467272 -12.5625 68.3125 C-13.91906408 70.51054428 -15.27584169 72.70845679 -16.6328125 74.90625 C-20.97390761 81.94297528 -25.29741148 88.99048196 -29.62106323 96.03793335 C-30.68823641 97.7769265 -31.75615348 99.51546091 -32.82421875 101.25390625 C-33.45545654 102.28201416 -34.08669434 103.31012207 -34.73706055 104.36938477 C-36.50657207 107.22232865 -38.30777868 110.05226206 -40.125 112.875 C-46.02568997 122.11494407 -51.37423142 131.65813943 -56.5625 141.3125 C-57.2225 141.3125 -57.8825 141.3125 -58.5625 141.3125 C-58.97435547 142.40884766 -58.97435547 142.40884766 -59.39453125 143.52734375 C-60.86989499 147.04551883 -62.77751066 150.12929714 -64.81590271 153.34637451 C-66.6177288 156.2778198 -66.6177288 156.2778198 -67.94715881 159.42730713 C-71.83999346 167.68020769 -71.83999346 167.68020769 -76.42672729 169.3638916 C-79.98623712 169.7039256 -83.36233198 169.66383026 -86.93359375 169.484375 C-88.21105972 169.46739563 -89.4885257 169.45041626 -90.80470276 169.43292236 C-94.18394665 169.3772527 -97.55325707 169.26980063 -100.92974854 169.13647461 C-104.38133334 169.01314194 -107.8339509 168.95879393 -111.28710938 168.8984375 C-118.04829562 168.76634312 -124.80482513 168.56573874 -131.5625 168.3125 C-130.21300391 164.85517218 -128.74400455 161.76452047 -126.796875 158.6015625 C-125.96651733 157.24562988 -125.96651733 157.24562988 -125.11938477 155.86230469 C-124.22497681 154.41452637 -124.22497681 154.41452637 -123.3125 152.9375 C-122.04542343 150.87248755 -120.77850088 148.80738059 -119.51171875 146.7421875 C-118.53404541 145.15229004 -118.53404541 145.15229004 -117.53662109 143.53027344 C-115.60532032 140.38229617 -113.68509837 137.22788452 -111.76953125 134.0703125 C-110.85252441 132.55896729 -110.85252441 132.55896729 -109.91699219 131.01708984 C-108.75962089 129.10884633 -107.60268846 127.20033654 -106.44628906 125.29150391 C-103.06760296 119.73155101 -99.61693172 114.22407397 -96.10107422 108.74975586 C-94.14906119 105.65757146 -92.33814089 102.5086536 -90.5625 99.3125 C-89.9025 99.3125 -89.2425 99.3125 -88.5625 99.3125 C-88.44003906 98.73371094 -88.31757813 98.15492188 -88.19140625 97.55859375 C-86.07633503 90.00476798 -80.58883649 83.00743148 -76.4921875 76.421875 C-75.31511993 74.52522362 -74.15036078 72.62076885 -73.0078125 70.703125 C-71.91159081 68.87392669 -70.74541276 67.08686914 -69.5625 65.3125 C-68.9025 65.3125 -68.2425 65.3125 -67.5625 65.3125 C-67.23572266 64.11560547 -67.23572266 64.11560547 -66.90234375 62.89453125 C-65.1611221 58.23942848 -62.71478773 54.2283993 -60.125 50 C-59.59366455 49.12496826 -59.0623291 48.24993652 -58.51489258 47.34838867 C-35.00726967 8.82848917 -35.00726967 8.82848917 -19.5625 3.3125 C-18.92256104 3.05927979 -18.28262207 2.80605957 -17.62329102 2.54516602 C-11.64659244 0.31380096 -6.34332996 -0.11483219 0 0 Z " fill="#032160" transform="translate(429.5625,550.6875)"/>
<path d="M0 0 C1.43988029 0.00056525 2.87976116 0.00024534 4.31964111 -0.00088501 C8.19914199 -0.00145509 12.07851732 0.01024284 15.95798922 0.02426291 C20.02320488 0.03682826 24.08842392 0.03794532 28.15365601 0.04031372 C35.83861541 0.04651152 43.52351741 0.06289915 51.20845163 0.0830127 C59.96304334 0.10542484 68.71763789 0.11637846 77.47225118 0.12640357 C95.46900069 0.14726701 113.46569689 0.18240968 131.46240234 0.22705078 C131.48232315 1.66368033 131.49651632 3.10039005 131.50830078 4.53710938 C131.51682068 5.337164 131.52534058 6.13721863 131.53411865 6.96151733 C131.23121711 16.5302416 125.10464571 25.84397009 118.46240234 32.22705078 C110.99354759 39.04838151 105.80898183 43.22705078 95.46240234 43.22705078 C95.46240234 43.88705078 95.46240234 44.54705078 95.46240234 45.22705078 C94.17280609 45.23735825 92.88320984 45.24766571 91.55453491 45.25828552 C79.40082089 45.35604528 67.24715777 45.45878187 55.09352684 45.56639004 C48.84524654 45.62155234 42.59696151 45.67496165 36.34863281 45.72436523 C30.31857909 45.77210748 24.2885813 45.82445384 18.25859451 45.87999153 C15.95813007 45.90037042 13.65765031 45.91909078 11.35715866 45.9361248 C8.13485942 45.96026773 4.91266505 45.99030876 1.69042969 46.02172852 C0.26407196 46.03036171 0.26407196 46.03036171 -1.19110107 46.03916931 C-5.74767167 46.08966454 -10.0541329 46.30183665 -14.53759766 47.22705078 C-14.53759766 47.88705078 -14.53759766 48.54705078 -14.53759766 49.22705078 C-20.53759766 52.22705078 -20.53759766 52.22705078 -22.78759766 53.16455078 C-25.04052153 54.53239742 -25.4085904 55.86371842 -26.53759766 58.22705078 C-26.93978516 58.88962891 -27.34197266 59.55220703 -27.75634766 60.23486328 C-33.94137026 70.455236 -35.64467223 83.50518369 -33.10253906 95.234375 C-30.96571406 102.90360635 -28.34242922 109.69049641 -21.53759766 114.22705078 C-21.53759766 114.88705078 -21.53759766 115.54705078 -21.53759766 116.22705078 C-19.87453925 116.90266826 -18.20665161 117.56638359 -16.53759766 118.22705078 C-15.43951782 118.73762527 -14.34143799 119.24819977 -13.21008301 119.77424622 C-7.22481291 121.99429794 -1.08459692 121.66649286 5.22216797 121.65942383 C6.60264964 121.66845309 7.98312333 121.67878315 9.36358643 121.69030762 C13.09028807 121.71776734 16.81683713 121.72714701 20.54362679 121.73316169 C24.44609693 121.74257425 28.34845438 121.76877987 32.25085449 121.79316711 C39.63125319 121.8367568 47.01162992 121.86534991 54.39211798 121.8884905 C62.79849646 121.91558266 71.20476116 121.95949162 79.61105824 122.00477922 C96.89478093 122.09751756 114.17852822 122.16924765 131.46240234 122.22705078 C131.47445735 123.83437284 131.48307732 125.44172093 131.49023438 127.04907227 C131.4954007 127.94416 131.50056702 128.83924774 131.50588989 129.76145935 C131.36454019 137.77549158 127.65923503 145.23404596 122.46240234 151.22705078 C121.80240234 151.22705078 121.14240234 151.22705078 120.46240234 151.22705078 C120.08341797 152.11263672 120.08341797 152.11263672 119.69677734 153.01611328 C115.52349345 160.49104583 105.60937496 165.08796076 97.74609375 167.66482544 C89.39916339 169.71976848 80.36392086 168.98436553 71.83740234 168.88330078 C69.5592499 168.87717009 67.2810899 168.87342966 65.00292969 168.87194824 C60.24888996 168.86278986 55.4955368 168.83412866 50.74169922 168.78955078 C44.68323978 168.73299051 38.62531834 168.71112087 32.56661987 168.70218658 C26.74014654 168.69181853 20.91380436 168.6627947 15.08740234 168.63330078 C13.99433777 168.62953934 12.90127319 168.62577789 11.77508545 168.62190247 C-13.47780127 168.50961597 -35.49748288 165.51474191 -56.53759766 150.22705078 C-56.53759766 149.56705078 -56.53759766 148.90705078 -56.53759766 148.22705078 C-57.19759766 148.22705078 -57.85759766 148.22705078 -58.53759766 148.22705078 C-59.90478516 146.83642578 -59.90478516 146.83642578 -61.41259766 144.97705078 C-63.10692203 142.92494431 -64.74992943 141.02096406 -66.66259766 139.16455078 C-72.53759766 133.09371745 -72.53759766 133.09371745 -72.53759766 129.22705078 C-73.52759766 128.89705078 -74.51759766 128.56705078 -75.53759766 128.22705078 C-76.67934153 126.0318579 -77.6021471 123.96601805 -78.47509766 121.66455078 C-78.73307129 120.98618164 -78.99104492 120.3078125 -79.25683594 119.60888672 C-80.04125781 117.48943446 -80.79406685 115.36115826 -81.53759766 113.22705078 C-81.95912109 112.03724609 -82.38064453 110.84744141 -82.81494141 109.62158203 C-85.43042647 100.937427 -85.91692916 92.59650959 -85.97509766 83.53955078 C-85.98524902 82.42354492 -85.99540039 81.30753906 -86.00585938 80.15771484 C-85.89322731 69.3799368 -83.87790592 59.06519681 -79.41259766 49.22705078 C-79.11909424 48.56769531 -78.82559082 47.90833984 -78.52319336 47.22900391 C-75.36055965 40.40734798 -71.38178658 33.98877447 -66.53759766 28.22705078 C-65.87759766 28.22705078 -65.21759766 28.22705078 -64.53759766 28.22705078 C-64.27462891 27.63279297 -64.01166016 27.03853516 -63.74072266 26.42626953 C-60.29101617 20.12047489 -53.16178946 16.14897109 -47.28759766 12.28955078 C-46.6852832 11.88776611 -46.08296875 11.48598145 -45.46240234 11.07202148 C-42.11081924 8.92616807 -40.63215657 8.22705078 -36.53759766 8.22705078 C-36.53759766 7.56705078 -36.53759766 6.90705078 -36.53759766 6.22705078 C-34.74879488 5.59390066 -32.95634567 4.97105199 -31.16259766 4.35205078 C-30.16486328 4.00400391 -29.16712891 3.65595703 -28.13916016 3.29736328 C-18.69835577 0.49174463 -9.82413165 -0.05447455 0 0 Z " fill="#042261" transform="translate(632.53759765625,550.77294921875)"/>
<path d="M0 0 C20.79 0 41.58 0 63 0 C63.495 1.485 63.495 1.485 64 3 C65.33217541 3.33793129 66.66566828 3.67068595 68 4 C69.60546875 5.49609375 69.60546875 5.49609375 71.1875 7.4375 C73.85199075 10.63034393 76.56688911 13.74465111 79.375 16.8125 C82.48528851 20.25378205 85.46478312 23.76321298 88.375 27.375 C92.16999382 32.07197299 96.15764695 36.53540841 100.28271484 40.94091797 C107 48.13994037 107 48.13994037 107 51 C107.928125 51.37125 107.928125 51.37125 108.875 51.75 C111.38710296 53.22770762 111.76107344 54.43955177 113 57 C114.485 57.495 114.485 57.495 116 58 C117.66666667 60 119.33333333 62 121 64 C122.485 64.495 122.485 64.495 124 65 C124.19851563 64.319375 124.39703125 63.63875 124.6015625 62.9375 C126.51324726 58.92189403 129.29938743 56.17045525 132.375 53 C133.53023805 51.79318883 134.68391776 50.58488374 135.8359375 49.375 C136.65529785 48.51841797 136.65529785 48.51841797 137.49121094 47.64453125 C138.83233326 46.18275132 140.06969522 44.62728532 141.2890625 43.0625 C142.13597656 42.0415625 142.13597656 42.0415625 143 41 C143.66 41 144.32 41 145 41 C145.37125 40.195625 145.37125 40.195625 145.75 39.375 C149.06947977 33.06798843 153.03872849 27.97418101 159 24 C159.515625 23.13375 160.03125 22.2675 160.5625 21.375 C161.036875 20.59125 161.51125 19.8075 162 19 C162.66 19 163.32 19 164 19 C164.27328125 18.41049561 164.5465625 17.82099121 164.828125 17.21362305 C165.96484874 15.06639927 167.17292709 13.42115475 168.75 11.58203125 C169.2759375 10.96779297 169.801875 10.35355469 170.34375 9.72070312 C170.8903125 9.09099609 171.436875 8.46128906 172 7.8125 C172.5465625 7.17119141 173.093125 6.52988281 173.65625 5.86914062 C177.73967996 1.13016002 177.73967996 1.13016002 180 0 C182.03230896 -0.09152672 184.06768578 -0.11751434 186.10205078 -0.11352539 C187.38322784 -0.11344986 188.66440491 -0.11337433 189.98440552 -0.11329651 C191.38804157 -0.10818948 192.79167723 -0.10297348 194.1953125 -0.09765625 C195.62734935 -0.09579146 197.05938684 -0.09436784 198.49142456 -0.09336853 C202.26273354 -0.08954819 206.03400407 -0.07972202 209.80529785 -0.06866455 C213.65274536 -0.05844005 217.50019907 -0.05386868 221.34765625 -0.04882812 C228.89845503 -0.03809933 236.44922213 -0.02102869 244 0 C243.21654285 1.17219543 242.42297164 2.33763668 241.625 3.5 C240.96371094 4.47453125 240.96371094 4.47453125 240.2890625 5.46875 C239.65097656 6.22671875 239.65097656 6.22671875 239 7 C238.34 7 237.68 7 237 7 C236.72615479 7.59151855 236.45230957 8.18303711 236.17016602 8.79248047 C235.04125555 10.92217135 233.86115673 12.51413957 232.27734375 14.3203125 C231.74334961 14.93293945 231.20935547 15.54556641 230.65917969 16.17675781 C230.09102539 16.81967773 229.52287109 17.46259766 228.9375 18.125 C228.35258789 18.79370117 227.76767578 19.46240234 227.16503906 20.15136719 C223.20429103 24.66892548 219.18218683 29.12852314 215.13671875 33.5703125 C211.90089961 37.24979971 208.87348575 41.0923162 205.84765625 44.9453125 C205.23792969 45.62335937 204.62820313 46.30140625 204 47 C203.34 47 202.68 47 202 47 C201.76667969 47.55171875 201.53335937 48.1034375 201.29296875 48.671875 C199.65980716 51.61255267 197.60660793 53.79077251 195.3125 56.25 C194.40313767 57.23390558 193.49428546 58.21828287 192.5859375 59.203125 C191.73257812 60.12609375 190.87921875 61.0490625 190 62 C185.08811053 67.45765496 180.46755909 73.11166353 175.91796875 78.875 C175.28503906 79.57625 174.65210938 80.2775 174 81 C173.34 81 172.68 81 172 81 C171.75636719 81.56203125 171.51273438 82.1240625 171.26171875 82.703125 C169.75819064 85.44019785 167.93300252 87.45795941 165.8125 89.75 C165.008125 90.62785156 164.20375 91.50570312 163.375 92.41015625 C162.59125 93.26480469 161.8075 94.11945313 161 95 C159.76559072 96.39119917 158.53589412 97.7866045 157.3125 99.1875 C156.81363281 99.75855469 156.31476563 100.32960938 155.80078125 100.91796875 C155.20652344 101.60503906 154.61226562 102.29210937 154 103 C153.51817764 103.41728363 153.03635529 103.83456726 152.53993225 104.26449585 C148.69323938 107.93772284 147.56178327 110.80848084 147.22705078 116.11889648 C147.18630178 118.53597526 147.1774769 120.95373731 147.1953125 123.37109375 C147.18160614 124.64855972 147.16789978 125.9260257 147.15377808 127.24220276 C147.12282298 130.61787047 147.11734571 133.99158608 147.12445068 137.36724854 C147.12536679 140.81986141 147.09278346 144.27215242 147.0625 147.72460938 C147.005649 154.48378669 147.00424504 161.23976762 147 168 C130.5 168 114 168 97 168 C97.06703125 163.96394531 97.1340625 159.92789063 97.203125 155.76953125 C97.22295187 152.51513348 97.23062918 149.26120145 97.23020935 146.00676727 C97.23305123 142.59018485 97.25638786 139.17678833 97.33251953 135.76098633 C98.40411299 118.60910555 98.40411299 118.60910555 91.79962158 103.52055359 C89.34512673 101.10355051 86.75809154 99.0673667 84 97 C82.73215368 95.6392035 81.49120874 94.25119632 80.3125 92.8125 C77.74286926 89.84273211 75.13180445 86.91488929 72.5 84 C69.23609152 80.38323655 66.01209051 76.73610392 62.8125 73.0625 C60.72788836 70.69035571 58.61571356 68.34443935 56.5 66 C53.23609152 62.38323655 50.01209051 58.73610392 46.8125 55.0625 C44.72788836 52.69035571 42.61571356 50.34443935 40.5 48 C37.23787207 44.38520959 34.01340971 40.74218095 30.8203125 37.06640625 C28.70212607 34.66185556 26.5369237 32.30277296 24.375 29.9375 C21.85637905 27.15979662 19.51525852 24.43263569 17.4375 21.3125 C15.06107637 17.79340577 12.02083064 15.33844187 8.7890625 12.62109375 C6.60387181 10.64106288 5.3414609 8.61584875 4 6 C2.68 4.02 1.36 2.04 0 0 Z " fill="#EB1C25" transform="translate(1004,551)"/>
<path d="M0 0 C1.52976943 0.00381546 3.05953936 0.0074307 4.58930969 0.01086426 C24.9127572 0.07100117 45.23549087 0.32229564 65.55749512 0.55731201 C70.93610042 0.61907917 76.31473096 0.67856718 81.69335938 0.73828125 C92.14325417 0.85461579 102.59312 0.9733548 113.04296875 1.09375 C112.71296875 6.04375 112.38296875 10.99375 112.04296875 16.09375 C111.38296875 16.09375 110.72296875 16.09375 110.04296875 16.09375 C109.96046875 16.939375 109.87796875 17.785 109.79296875 18.65625 C108.03533684 26.71206291 102.37204881 33.65611233 95.98046875 38.71875 C83.99015812 46.3860473 72.94175556 46.78426411 59.1796875 46.58203125 C57.2925562 46.57268501 55.40541263 46.56557748 53.51826477 46.56059265 C48.59434452 46.54166521 43.67118282 46.49269051 38.74755859 46.43707275 C32.81700563 46.3764859 26.88619648 46.35389602 20.95542145 46.32480621 C11.98407921 46.27661429 3.01439544 46.18070115 -5.95703125 46.09375 C-5.95703125 66.22375 -5.95703125 86.35375 -5.95703125 107.09375 C-22.78703125 107.09375 -39.61703125 107.09375 -56.95703125 107.09375 C-57.03724887 90.4842464 -57.03724887 90.4842464 -57.0546875 83.36132812 C-57.06660662 78.5159869 -57.08065153 73.67072183 -57.10791016 68.82543945 C-57.1297664 64.91562507 -57.14162662 61.00589245 -57.14678574 57.09602165 C-57.15045868 55.61021578 -57.15763056 54.12441398 -57.16849136 52.63864326 C-57.2728593 37.75855627 -55.28999653 24.53327569 -44.64453125 13.15625 C-31.28744123 1.08695117 -17.22090605 -0.08193807 0 0 Z " fill="#EC1B24" transform="translate(835.95703125,611.90625)"/>
<path d="M0 0 C1.08702928 -0.00256327 1.08702928 -0.00256327 2.19601876 -0.00517833 C4.60661729 -0.00845345 7.01693292 0.00249751 9.42750549 0.01345825 C11.16250604 0.01402279 12.89750706 0.01370497 14.63250732 0.01257324 C19.33033219 0.01200041 24.02805451 0.02374351 28.72585559 0.03772116 C33.63991444 0.05024007 38.55397576 0.05139993 43.4680481 0.05377197 C52.76807061 0.05998332 62.06804599 0.0763895 71.36804777 0.09647095 C81.95808665 0.11884067 92.5481278 0.12982608 103.13818443 0.13986182 C124.91767516 0.16075601 146.69712349 0.19592531 168.47657776 0.24050903 C168.48959494 1.68319337 168.49888971 3.12591162 168.50660706 4.56863403 C168.51218124 5.37204224 168.51775543 6.17545044 168.52349854 7.00320435 C168.33548357 15.96824713 163.30606683 23.99627543 158.47657776 31.24050903 C157.81657776 31.24050903 157.15657776 31.24050903 156.47657776 31.24050903 C156.24196838 31.82574341 156.00735901 32.41097778 155.76564026 33.01394653 C152.98882773 37.81025908 147.24329478 41.23609031 142.10939026 43.09988403 C140.24732092 43.55005464 138.36245833 43.90374465 136.47657776 44.24050903 C135.48657776 44.73550903 135.48657776 44.73550903 134.47657776 45.24050903 C132.20877915 45.33516883 129.93809244 45.36240593 127.6683197 45.36076355 C126.60607459 45.36204519 126.60607459 45.36204519 125.52236998 45.36335272 C123.13777718 45.36500628 120.75325397 45.35948816 118.3686676 45.35403442 C116.66396079 45.3537525 114.95925386 45.35391039 113.25454712 45.35447693 C108.61637315 45.3547647 103.97822487 45.34887126 99.3400569 45.34190297 C94.49670001 45.33566604 89.65334258 45.33506536 84.8099823 45.33387756 C75.63376608 45.33076525 66.45756172 45.32255321 57.28135073 45.31252807 C46.83652283 45.30136383 36.39169437 45.2958557 25.94686198 45.29083264 C4.45676061 45.28037052 -17.03333007 45.26277301 -38.52342224 45.24050903 C-38.5473449 43.31836939 -38.56442044 41.39614369 -38.57859802 39.47390747 C-38.58884003 38.40348206 -38.59908203 37.33305664 -38.6096344 36.23019409 C-38.32184496 26.25016557 -32.50907 17.09857132 -25.53904724 10.30691528 C-17.70586336 3.22465693 -10.76864195 -0.01537279 0 0 Z " fill="#EC1B24" transform="translate(817.5234222412109,550.7594909667969)"/>
<path d="M0 0 C0.33 0 0.66 0 1 0 C0.67 5.28 0.34 10.56 0 16 C57.09 16 114.18 16 173 16 C171 18 171 18 168.05209923 18.24609566 C166.77818132 18.24425207 165.50426342 18.24240849 164.19174194 18.24050903 C163.48357854 18.24221788 162.77541513 18.24392673 162.04579222 18.24568737 C159.66112342 18.24899459 157.27673294 18.23795852 154.89208984 18.22705078 C153.18738308 18.22648693 151.48267584 18.22680271 149.77796936 18.22793579 C145.13976373 18.22851133 140.50166082 18.2167245 135.86347914 18.20278788 C131.02012619 18.19031402 126.17677107 18.18911267 121.33340454 18.18673706 C112.15717122 18.18051243 102.98098536 18.16408835 93.80477297 18.14403808 C83.3599501 18.12170961 72.91512501 18.11069334 62.47028422 18.10064721 C40.98016296 18.07972295 19.49008446 18.04452793 -2 18 C-2.02709937 16.07820314 -2.04644098 14.15629582 -2.0625 12.234375 C-2.07410156 11.16413086 -2.08570313 10.09388672 -2.09765625 8.99121094 C-1.98972693 5.6853358 -1.34355695 3.02300314 0 0 Z " fill="#E4474C" transform="translate(781,578)"/>
<path d="M0 0 C1.02845451 3.25173116 0.94200644 5.75972369 0.5 9.125 C-0.08291137 12.69368133 -0.08291137 12.69368133 1 16 C1.09110781 17.87919548 1.11752837 19.76166792 1.11352539 21.64306641 C1.11344986 22.82413971 1.11337433 24.00521301 1.11329651 25.22207642 C1.10813522 26.50230682 1.10297394 27.78253723 1.09765625 29.1015625 C1.0962413 30.40829926 1.09482635 31.71503601 1.09336853 33.06137085 C1.08954894 36.53676258 1.07972342 40.01211257 1.06866455 43.48748779 C1.05843843 47.03331935 1.05381358 50.57915784 1.04882812 54.125 C1.03863122 61.08337021 1.01905824 68.04162577 1 75 C15.85 75.33 30.7 75.66 46 76 C46.33 76.66 46.66 77.32 47 78 C47 58.2 47 38.4 47 18 C47.33 18 47.66 18 48 18 C48 38.13 48 58.26 48 79 C31.17 79 14.34 79 -3 79 C-3.08021762 62.3904964 -3.08021762 62.3904964 -3.09765625 55.26757812 C-3.10957537 50.4222369 -3.12362028 45.57697183 -3.15087891 40.73168945 C-3.17273515 36.82187507 -3.18459537 32.91214245 -3.18975449 29.00227165 C-3.19342743 27.51646578 -3.20059931 26.03066398 -3.21146011 24.54489326 C-3.33680806 6.67361612 -3.33680806 6.67361612 0 0 Z " fill="#DF4148" transform="translate(782,640)"/>
<path d="M0 0 C29.7 0 59.4 0 90 0 C86.71751721 3.28248279 83.69425127 3.11589363 79.23252869 3.12442017 C78.05648827 3.11902725 78.05648827 3.11902725 76.85668945 3.11352539 C75.61245209 3.11374443 75.61245209 3.11374443 74.34307861 3.1139679 C71.59978628 3.11327092 68.85656173 3.10548853 66.11328125 3.09765625 C64.21184832 3.09579131 62.31041491 3.09436776 60.40898132 3.09336853 C55.40305252 3.08954936 50.3971527 3.07972416 45.39123535 3.06866455 C40.28361402 3.05843756 35.175988 3.05386815 30.06835938 3.04882812 C20.04556018 3.03810138 10.0227825 3.02103212 0 3 C0 2.01 0 1.02 0 0 Z " fill="#E53B44" transform="translate(830,655)"/>
<path d="M0 0 C1.08702928 -0.00256327 1.08702928 -0.00256327 2.19601876 -0.00517833 C4.60661729 -0.00845345 7.01693292 0.00249751 9.42750549 0.01345825 C11.16250604 0.01402279 12.89750706 0.01370497 14.63250732 0.01257324 C19.33033219 0.01200041 24.02805451 0.02374351 28.72585559 0.03772116 C33.63991444 0.05024007 38.55397576 0.05139993 43.4680481 0.05377197 C52.76807061 0.05998332 62.06804599 0.0763895 71.36804777 0.09647095 C81.95808665 0.11884067 92.5481278 0.12982608 103.13818443 0.13986182 C124.91767516 0.16075601 146.69712349 0.19592531 168.47657776 0.24050903 C168.49438161 1.67658029 168.5070636 3.11271563 168.51759338 4.54885864 C168.52520691 5.34859604 168.53282043 6.14833344 168.54066467 6.9723053 C168.46151083 9.77376712 167.87216052 12.1535767 166.97657776 14.80300903 C166.69814026 15.6499231 166.41970276 16.49683716 166.13282776 17.36941528 C165.91626526 17.98687622 165.69970276 18.60433716 165.47657776 19.24050903 C163.96104684 15.2660041 164.97769153 12.03569754 165.91407776 7.99050903 C166.2015387 6.72722778 166.48899963 5.46394653 166.78517151 4.16238403 C167.01333557 3.19816528 167.24149963 2.23394653 167.47657776 1.24050903 C145.04097453 1.27768174 122.60553397 1.33755148 100.17006588 1.42441177 C89.75278402 1.46421424 79.33557784 1.49660062 68.91822815 1.51150513 C59.83803154 1.52451536 50.75800135 1.55146401 41.67789847 1.5951221 C36.87041078 1.61775099 32.06312848 1.63341885 27.25558281 1.63239288 C22.7287917 1.63164712 18.20245483 1.64956432 13.67578125 1.68167686 C12.01619603 1.6901822 10.35655989 1.69192147 8.69696236 1.68631172 C6.42614933 1.6796595 4.15677648 1.69761918 1.8861084 1.7215271 C0.61679946 1.72521427 -0.65250948 1.72890144 -1.96028233 1.73270035 C-6.39016924 2.36403538 -8.76946722 3.84730822 -12.52342224 6.24050903 C-14.90376538 7.19871638 -16.99172679 7.69445707 -19.52342224 8.24050903 C-20.18342224 7.91050903 -20.84342224 7.58050903 -21.52342224 7.24050903 C-14.61191288 1.880563 -8.8923472 -0.01269429 0 0 Z " fill="#D33840" transform="translate(817.5234222412109,550.7594909667969)"/>
<path d="M0 0 C1.52976943 0.00381546 3.05953936 0.0074307 4.58930969 0.01086426 C24.9127572 0.07100117 45.23549087 0.32229564 65.55749512 0.55731201 C70.93610042 0.61907917 76.31473096 0.67856718 81.69335938 0.73828125 C92.14325417 0.85461579 102.59312 0.9733548 113.04296875 1.09375 C112.71296875 6.04375 112.38296875 10.99375 112.04296875 16.09375 C111.38296875 16.09375 110.72296875 16.09375 110.04296875 16.09375 C110.04296875 11.80375 110.04296875 7.51375 110.04296875 3.09375 C65.16296875 3.09375 20.28296875 3.09375 -25.95703125 3.09375 C-18.79278505 -1.68241413 -8.29656793 -0.03947555 0 0 Z " fill="#D73B42" transform="translate(835.95703125,611.90625)"/>
<path d="M0 0 C1.125 3.75 1.125 3.75 0 6 C-0.2322646 8.71262116 -0.41936235 11.40773126 -0.5625 14.125 C-0.60568359 14.87910156 -0.64886719 15.63320313 -0.69335938 16.41015625 C-0.7994832 18.27321888 -0.90025001 20.13658524 -1 22 C18.91421789 21.89287126 38.8283964 21.7801299 58.74254417 21.66066074 C67.98850605 21.60532391 77.23447178 21.55184117 86.48046875 21.50268555 C94.53693026 21.45984934 102.59336331 21.41357278 110.64978087 21.36312145 C114.9176994 21.33651596 119.18561227 21.31166278 123.45356369 21.29092598 C127.4671979 21.27137056 131.48077791 21.2472301 135.49436378 21.21950912 C136.9706162 21.21013288 138.44688053 21.20245966 139.92315102 21.19658089 C141.93246419 21.18832956 143.94174701 21.17346385 145.95101929 21.15821838 C147.07745031 21.15176583 148.20388134 21.14531328 149.36444664 21.1386652 C151.97873474 21.17713351 151.97873474 21.17713351 154 20 C154.65213292 17.97536745 154.65213292 17.97536745 155 16 C158 19.625 158 19.625 158 23 C105.2 23 52.4 23 -2 23 C-2 5 -2 5 0 0 Z " fill="#3E5277" transform="translate(404,696)"/>
<path d="M0 0 C1.28117706 0.00007553 2.56235413 0.00015106 3.88235474 0.00022888 C5.28599079 0.00533591 6.68962645 0.01055191 8.09326172 0.01586914 C9.52529857 0.01773394 10.95733606 0.01915755 12.38937378 0.02015686 C16.16068276 0.0239772 19.93195329 0.03380337 23.70324707 0.04486084 C27.55069458 0.05508534 31.39814829 0.05965671 35.24560547 0.06469727 C42.79640425 0.07542606 50.34717135 0.0924967 57.89794922 0.11352539 C56.24794922 1.76352539 54.59794922 3.41352539 52.89794922 5.11352539 C52.89794922 4.45352539 52.89794922 3.79352539 52.89794922 3.11352539 C45.3875084 3.09036074 37.87707129 3.07258924 30.3666029 3.06171322 C26.87923611 3.05649343 23.39189375 3.04941216 19.90454102 3.03808594 C15.89583094 3.02514785 11.88714655 3.02028971 7.87841797 3.01586914 C6.62522263 3.01070786 5.37202728 3.00554657 4.08085632 3.00022888 C2.9198793 3.00015335 1.75890228 3.00007782 0.56274414 3 C-0.46095779 2.99777939 -1.48465973 2.99555878 -2.53938293 2.99327087 C-5.2228785 3.00301705 -5.2228785 3.00301705 -8.10205078 4.11352539 C-8.43205078 5.10352539 -8.76205078 6.09352539 -9.10205078 7.11352539 C-11.66455078 8.30102539 -11.66455078 8.30102539 -14.10205078 9.11352539 C-13.14869057 7.79740862 -12.18919304 6.48573578 -11.22705078 5.17602539 C-10.69337891 4.44512695 -10.15970703 3.71422852 -9.60986328 2.96118164 C-6.80092569 -0.48085847 -4.24688738 -0.00832723 0 0 Z " fill="#E31E2B" transform="translate(1190.10205078125,550.886474609375)"/>
<path d="M0 0 C20.79 0 41.58 0 63 0 C63.495 1.485 63.495 1.485 64 3 C64.639375 3.144375 65.27875 3.28875 65.9375 3.4375 C68 4 68 4 69.25 6.0625 C69.4975 6.701875 69.745 7.34125 70 8 C69.34 8.33 68.68 8.66 68 9 C67.505 7.02 67.505 7.02 67 5 C66.05125 4.855625 65.1025 4.71125 64.125 4.5625 C61 4 61 4 59 3 C57.2134547 2.88055524 55.42263749 2.82277682 53.63232422 2.79467773 C51.95080765 2.7647599 51.95080765 2.7647599 50.23532104 2.73423767 C48.41340744 2.70916893 48.41340744 2.70916893 46.5546875 2.68359375 C45.31453888 2.66281265 44.07439026 2.64203156 42.79666138 2.62062073 C39.49888177 2.56622295 36.2010728 2.51599905 32.90319824 2.46777344 C29.53827347 2.41754766 26.1734395 2.36186723 22.80859375 2.30664062 C16.20580146 2.19938443 9.60294128 2.09762811 3 2 C2.67 2.66 2.34 3.32 2 4 C1.34 2.68 0.68 1.36 0 0 Z " fill="#E2242E" transform="translate(1004,551)"/>
<path d="M0 0 C0.33 0.66 0.66 1.32 1 2 C0.525625 2.763125 0.05125 3.52625 -0.4375 4.3125 C-2.12749356 7.21928892 -2.28205672 8.70933821 -2 12 C-2.99 12.33 -3.98 12.66 -5 13 C-5.268125 13.845625 -5.53625 14.69125 -5.8125 15.5625 C-7.35171121 20.0181114 -9.77557185 23.56225091 -13 27 C-13.99 27.33 -14.98 27.66 -16 28 C-13.00083148 20.02107997 -8.09897843 13.00442556 -3.296875 6.0078125 C-2.03859481 4.0597522 -0.99482125 2.09287866 0 0 Z " fill="#293E6E" transform="translate(338,652)"/>
<path d="M0 0 C21.12 0 42.24 0 64 0 C62.68 1.32 61.36 2.64 60 4 C59.505 3.01 59.505 3.01 59 2 C29.795 1.505 29.795 1.505 0 1 C0 0.67 0 0.34 0 0 Z " fill="#CF363E" transform="translate(1184,551)"/>
<path d="M0 0 C0.66 1.32 1.32 2.64 2 4 C1.01 4.99 0.02 5.98 -1 7 C-1.99 6.67 -2.98 6.34 -4 6 C-4 7.65 -4 9.3 -4 11 C-4.66 11 -5.32 11 -6 11 C-6.2475 11.61875 -6.495 12.2375 -6.75 12.875 C-8.23954094 15.4072196 -9.37581048 15.80718658 -12 17 C-13.70921589 18.5412312 -13.70921589 18.5412312 -15 20 C-15.66 19.67 -16.32 19.34 -17 19 C-16.04882866 17.8274869 -15.08882991 16.66212985 -14.125 15.5 C-13.59132813 14.8503125 -13.05765625 14.200625 -12.5078125 13.53125 C-11.76144531 12.77328125 -11.76144531 12.77328125 -11 12 C-10.34 12 -9.68 12 -9 12 C-8.62875 11.195625 -8.62875 11.195625 -8.25 10.375 C-6.01390094 6.12641179 -4.03188725 2.68792483 0 0 Z " fill="#E24D53" transform="translate(1158,580)"/>
<path d="M0 0 C20.79 0 41.58 0 63 0 C63 0.33 63 0.66 63 1 C62.26528473 1.00808685 61.53056946 1.01617371 60.77359009 1.02450562 C53.8574793 1.10237093 46.94154454 1.18963694 40.02569008 1.28752708 C36.46996607 1.33752304 32.91427224 1.38385244 29.35839844 1.421875 C25.27259361 1.46572333 21.18715419 1.52538806 17.1015625 1.5859375 C15.82133209 1.59748871 14.54110168 1.60903992 13.22207642 1.62094116 C12.04100311 1.64081085 10.85992981 1.66068054 9.64306641 1.68115234 C8.59937897 1.69447601 7.55569153 1.70779968 6.4803772 1.7215271 C3.82569038 1.75844259 3.82569038 1.75844259 2 4 C1.34 2.68 0.68 1.36 0 0 Z " fill="#CF373E" transform="translate(1004,551)"/>
<path d="M0 0 C0.33 0.66 0.66 1.32 1 2 C-1.67312811 7.931003 -6.30313256 13.55158146 -11 18 C-11.66 18 -12.32 18 -13 18 C-13 18.66 -13 19.32 -13 20 C-14.32 20.33 -15.64 20.66 -17 21 C-14.41664129 16.13720713 -10.94561785 11.8315277 -7 8 C-6.34 8 -5.68 8 -5 8 C-4.731875 7.4225 -4.46375 6.845 -4.1875 6.25 C-2.98280141 3.9674132 -1.59201885 2.0262058 0 0 Z " fill="#FBD1D1" transform="translate(1169,640)"/>
<path d="M0 0 C3.25991007 2.9882509 5.3443673 6.02425613 7.5 9.875 C9.38692348 13.20247797 11.25280013 16.48400802 13.4375 19.625 C15 22 15 22 15 24 C14.01 24 13.02 24 12 24 C9.50022457 20.66696609 9 19.26696398 9 15 C8.34 15 7.68 15 7 15 C7 14.01 7 13.02 7 12 C6.37609375 11.77570312 5.7521875 11.55140625 5.109375 11.3203125 C2.27668841 9.54726052 2.06744557 8.06303773 1.25 4.875 C0.88648438 3.50988281 0.88648438 3.50988281 0.515625 2.1171875 C0.34546875 1.41851563 0.1753125 0.71984375 0 0 Z " fill="#344975" transform="translate(474,576)"/>
<path d="M0 0 C0.33 0.66 0.66 1.32 1 2 C-0.97233721 6.05424872 -3.65901948 9.00168415 -7 12 C-7.66 12 -8.32 12 -9 12 C-9.12375 12.61875 -9.2475 13.2375 -9.375 13.875 C-10 16 -10 16 -12 18 C-12.99 17.67 -13.98 17.34 -15 17 C-12.87624614 14.54058769 -10.75078411 12.08265758 -8.625 9.625 C-8.02171875 8.92632813 -7.4184375 8.22765625 -6.796875 7.5078125 C-5.92675781 6.50234375 -5.92675781 6.50234375 -5.0390625 5.4765625 C-4.23782959 4.549646 -4.23782959 4.549646 -3.42041016 3.60400391 C-2.3223884 2.3640584 -1.17113548 1.17113548 0 0 Z " fill="#FDD0D1" transform="translate(1205,600)"/>
<path d="M0 0 C2.66967513 0.91770082 3.7537301 1.52194667 5.0625 4.0625 C5.371875 4.701875 5.68125 5.34125 6 6 C6.99 6.33 7.98 6.66 9 7 C9.33 7.99 9.66 8.98 10 10 C7.125 9.75 7.125 9.75 4 9 C2.5625 7.0625 2.5625 7.0625 2 5 C2.33 4.34 2.66 3.68 3 3 C2.34 3 1.68 3 1 3 C0.67 3.66 0.34 4.32 0 5 C-0.66 3.68 -1.32 2.36 -2 1 C-1.34 0.67 -0.68 0.34 0 0 Z " fill="#E1353A" transform="translate(1111,602)"/>
<path d="M0 0 C0.33 1.32 0.66 2.64 1 4 C0.01 4 -0.98 4 -2 4 C-2 5.32 -2 6.64 -2 8 C-2.66 8 -3.32 8 -4 8 C-4 8.66 -4 9.32 -4 10 C-4.66 10 -5.32 10 -6 10 C-6.268125 10.639375 -6.53625 11.27875 -6.8125 11.9375 C-8 14 -8 14 -11 15 C-10.6875 13.0625 -10.6875 13.0625 -10 11 C-9.01 10.67 -8.02 10.34 -7 10 C-6.31379969 8.67661368 -5.65213539 7.34050052 -5 6 C-3.40283189 3.93277924 -1.70863672 1.97842146 0 0 Z " fill="#E14E57" transform="translate(1175,560)"/>
<path d="M0 0 C0.76171875 1.70703125 0.76171875 1.70703125 1 4 C-0.73046875 6.32421875 -0.73046875 6.32421875 -3.1875 8.6875 C-3.98542969 9.47511719 -4.78335937 10.26273438 -5.60546875 11.07421875 C-7.87726511 12.90129151 -9.15886805 13.61465107 -12 14 C-11.04956626 12.66102417 -10.08940853 11.32894573 -9.125 10 C-8.32449219 8.88625 -8.32449219 8.88625 -7.5078125 7.75 C-7.01023437 7.1725 -6.51265625 6.595 -6 6 C-5.34 6 -4.68 6 -4 6 C-3.566875 5.071875 -3.566875 5.071875 -3.125 4.125 C-2 2 -2 2 0 0 Z " fill="#FBCCCD" transform="translate(1182,626)"/>
<path d="M0 0 C0.66 0.33 1.32 0.66 2 1 C1.67 1.66 1.34 2.32 1 3 C2.32 3.33 3.64 3.66 5 4 C3.8141763 7.37503669 2.72426311 9.64722731 0 12 C-1.21724428 8.04395608 -1.89679663 3.79359325 0 0 Z " fill="#0E2562" transform="translate(409,618)"/>
<path d="M0 0 C0.75 1.75 0.75 1.75 1 4 C-0.8125 6.25 -0.8125 6.25 -3 8 C-3.66 8 -4.32 8 -5 8 C-5.2475 8.639375 -5.495 9.27875 -5.75 9.9375 C-7 12 -7 12 -9.078125 12.62890625 C-10.02945312 12.81259766 -10.02945312 12.81259766 -11 13 C-7.61227103 8.30840284 -4.21814817 3.9700218 0 0 Z " fill="#FDD1D1" transform="translate(1235,566)"/>
<path d="M0 0 C0.33 0.99 0.66 1.98 1 3 C-1.16652042 6.93183335 -2.83956241 9.27843962 -7 11 C-7.33 11.66 -7.66 12.32 -8 13 C-8.66 13 -9.32 13 -10 13 C-8.79618552 10.50638429 -7.54571278 8.31856917 -6 6 C-5.34 6 -4.68 6 -4 6 C-3.71125 5.38125 -3.4225 4.7625 -3.125 4.125 C-2 2 -2 2 0 0 Z " fill="#314673" transform="translate(572,573)"/>
<path d="M0 0 C0 3 0 3 -1.8984375 5.26171875 C-2.71570313 6.06222656 -3.53296875 6.86273437 -4.375 7.6875 C-5.18710937 8.49574219 -5.99921875 9.30398438 -6.8359375 10.13671875 C-9 12 -9 12 -11 12 C-8.84618556 6.71336455 -4.57763162 3.22129633 0 0 Z " fill="#C7D2E1" transform="translate(615,600)"/>
<path d="M0 0 C1 2 1 2 0.546875 3.83984375 C0.28390625 4.53207031 0.0209375 5.22429688 -0.25 5.9375 C-0.62898438 6.97197266 -0.62898438 6.97197266 -1.015625 8.02734375 C-2.08421284 10.16875987 -3.15534441 11.48338883 -5 13 C-5.66 13 -6.32 13 -7 13 C-5.35821735 8.22390502 -2.73453298 4.20617096 0 0 Z " fill="#324771" transform="translate(308,701)"/>
<path d="M0 0 C-2.1875 2.5625 -2.1875 2.5625 -5 5 C-7.8125 4.8125 -7.8125 4.8125 -10 4 C-7.53453745 -1.4592385 -5.69047474 -1.11335375 0 0 Z " fill="#E42832" transform="translate(1169,576)"/>
<path d="M0 0 C0.60546875 1.8046875 0.60546875 1.8046875 1 4 C-1.08139861 7.85444186 -2.79030081 10.49653601 -7 12 C-5.44298069 7.32894208 -2.91552627 3.91294315 0 0 Z " fill="#304775" transform="translate(388,572)"/>
<path d="M0 0 C0.33 0.66 0.66 1.32 1 2 C1.99 1.67 2.98 1.34 4 1 C4 3.97 4 6.94 4 10 C0.24623848 8.74874616 -0.24073289 7.4347596 -2 4 C-2 3.34 -2 2.68 -2 2 C-1.34 2 -0.68 2 0 2 C0 1.34 0 0.68 0 0 Z " fill="#1F386A" transform="translate(564,681)"/>
<path d="M0 0 C1.32 1.32 2.64 2.64 4 4 C1.36 5.98 -1.28 7.96 -4 10 C-4 8.35 -4 6.7 -4 5 C-2.35 4.67 -0.7 4.34 1 4 C0.67 2.68 0.34 1.36 0 0 Z " fill="#E02C34" transform="translate(934,641)"/>
<path d="M0 0 C0.66 0.33 1.32 0.66 2 1 C2 1.99 2 2.98 2 4 C2.99 3.67 3.98 3.34 5 3 C5.45375 4.11375 5.9075 5.2275 6.375 6.375 C7.72465986 9.96199008 7.72465986 9.96199008 10 12 C7 12 7 12 4.73828125 9.8125 C3.93777344 8.884375 3.13726563 7.95625 2.3125 7 C1.50425781 6.071875 0.69601562 5.14375 -0.13671875 4.1875 C-1.05904297 3.1046875 -1.05904297 3.1046875 -2 2 C-1.34 1.34 -0.68 0.68 0 0 Z " fill="#DD303B" transform="translate(1074,628)"/>
<path d="M0 0 C0.66 0.33 1.32 0.66 2 1 C1.34 3.31 0.68 5.62 0 8 C-0.99 7.67 -1.98 7.34 -3 7 C-3 7.33 -3 7.66 -3 8 C-4.65 8 -6.3 8 -8 8 C-3.375 2.25 -3.375 2.25 0 0 Z " fill="#DF3C44" transform="translate(798,620)"/>
<path d="M0 0 C0.33 0.66 0.66 1.32 1 2 C-0.79370744 6.09990271 -2.83766205 9.38008643 -6.8125 11.5 C-7.534375 11.665 -8.25625 11.83 -9 12 C-8.34 10.68 -7.68 9.36 -7 8 C-6.34 8 -5.68 8 -5 8 C-4.731875 7.4225 -4.46375 6.845 -4.1875 6.25 C-2.98280141 3.9674132 -1.59201885 2.0262058 0 0 Z " fill="#FAC6C9" transform="translate(1169,640)"/>
<path d="M0 0 C0.99 0.99 1.98 1.98 3 3 C2.67 3.99 2.34 4.98 2 6 C1.01 5.67 0.02 5.34 -1 5 C-0.95875 5.928125 -0.9175 6.85625 -0.875 7.8125 C-1 11 -1 11 -3 14 C-3.66 14 -4.32 14 -5 14 C-4.54636829 12.41531323 -4.08688548 10.83230076 -3.625 9.25 C-3.36976563 8.36828125 -3.11453125 7.4865625 -2.8515625 6.578125 C-2.0790066 4.23919428 -1.16374324 2.16557438 0 0 Z " fill="#364B77" transform="translate(556,594)"/>
<path d="M0 0 C0.66 0.33 1.32 0.66 2 1 C0.625 3.5 0.625 3.5 -1 6 C-1.66 6 -2.32 6 -3 6 C-3 6.99 -3 7.98 -3 9 C-4.65 9.66 -6.3 10.32 -8 11 C-6.52670958 5.99081256 -3.72484762 3.48192278 0 0 Z " fill="#E0454D" transform="translate(794,559)"/>
<path d="M0 0 C2.50037734 2.17424117 3.43628586 3.73045798 4 7 C4.66 7 5.32 7 6 7 C6.33 8.32 6.66 9.64 7 11 C5.1875 10.875 5.1875 10.875 3 10 C0.71094011 6.32115375 0 4.38448044 0 0 Z " fill="#2E436F" transform="translate(545,691)"/>
<path d="M0 0 C-3.26737303 3.26737303 -6.83168198 3.95672896 -11.375 4.125 C-12.24125 4.08375 -13.1075 4.0425 -14 4 C-14 3.34 -14 2.68 -14 2 C-9.15758367 0.66416101 -5.06562383 -0.25328119 0 0 Z " fill="#12265B" transform="translate(738,714)"/>
<path d="M0 0 C1.65 0 3.3 0 5 0 C7.125 4.625 7.125 4.625 6 8 C1.2 4.55384615 1.2 4.55384615 0.1875 1.75 C0.125625 1.1725 0.06375 0.595 0 0 Z " fill="#E0494E" transform="translate(1010,558)"/>
<path d="M0 0 C0 1.65 0 3.3 0 5 C-0.66 5 -1.32 5 -2 5 C-2.33 5.99 -2.66 6.98 -3 8 C-3.99 8.33 -4.98 8.66 -6 9 C-3.83333333 0 -3.83333333 0 0 0 Z " fill="#DE2B34" transform="translate(788,569)"/>
<path d="M0 0 C0.33 0.66 0.66 1.32 1 2 C0.525625 2.763125 0.05125 3.52625 -0.4375 4.3125 C-2.12749356 7.21928892 -2.28205672 8.70933821 -2 12 C-2.99 12 -3.98 12 -5 12 C-5.33 11.34 -5.66 10.68 -6 10 C-4.78515625 7.6171875 -4.78515625 7.6171875 -3.0625 4.875 C-2.21365234 3.50988281 -2.21365234 3.50988281 -1.34765625 2.1171875 C-0.90292969 1.41851563 -0.45820313 0.71984375 0 0 Z " fill="#3D527F" transform="translate(338,652)"/>
<path d="M0 0 C1.32 0.33 2.64 0.66 4 1 C2.02 4.63 0.04 8.26 -2 12 C-2.33 10.68 -2.66 9.36 -3 8 C-2.34 7.01 -1.68 6.02 -1 5 C-0.61500109 3.34450469 -0.27206865 1.6777567 0 0 Z " fill="#14295E" transform="translate(389,656)"/>
<path d="M0 0 C0.66 0 1.32 0 2 0 C0.5993784 3.501554 -0.62264089 4.46483677 -4 6 C-5.70921589 7.5412312 -5.70921589 7.5412312 -7 9 C-7.66 8.67 -8.32 8.34 -9 8 C-5.67692308 3.2 -5.67692308 3.2 -2.25 2.1875 C-1.5075 2.125625 -0.765 2.06375 0 2 C0 1.34 0 0.68 0 0 Z " fill="#DE3C44" transform="translate(1150,591)"/>
<path d="M0 0 C0.99 0.495 0.99 0.495 2 1 C2 1.99 2 2.98 2 4 C2.66 4 3.32 4 4 4 C5.06775224 5.96466413 6.06553465 7.96855359 7 10 C6.67 10.66 6.34 11.32 6 12 C5.67 10.68 5.34 9.36 5 8 C4.34 8 3.68 8 3 8 C3 7.34 3 6.68 3 6 C2.01 5.67 1.02 5.34 0 5 C0 3.35 0 1.7 0 0 Z " fill="#3A4E7A" transform="translate(537,678)"/>
<path d="M0 0 C0.33 0 0.66 0 1 0 C1.33 6.6 1.66 13.2 2 20 C1.67 19.34 1.34 18.68 1 18 C0.34 18 -0.32 18 -1 18 C-0.505 9.09 -0.505 9.09 0 0 Z " fill="#2D436E" transform="translate(597,628)"/>
<path d="M0 0 C3.465 1.98 3.465 1.98 7 4 C7.33 3.01 7.66 2.02 8 1 C8.33 1.66 8.66 2.32 9 3 C7.8125 4.5 7.8125 4.5 6 6 C3.3125 6.1875 3.3125 6.1875 1 6 C0.67 4.02 0.34 2.04 0 0 Z " fill="#DF424A" transform="translate(1121,612)"/>
<path d="M0 0 C3.75376152 1.25125384 4.24073289 2.5652404 6 6 C6 6.66 6 7.32 6 8 C5.01 8 4.02 8 3 8 C0.89229241 5.11165997 0 3.61537605 0 0 Z " fill="#2D4070" transform="translate(483,592)"/>
<path d="M0 0 C0.99 0.495 0.99 0.495 2 1 C2.625 3.5625 2.625 3.5625 3 6 C3.66 6 4.32 6 5 6 C5.66 7.65 6.32 9.3 7 11 C5.109375 10.74609375 5.109375 10.74609375 3 10 C1.953125 8.22265625 1.953125 8.22265625 1.25 6.0625 C1.00765625 5.35222656 0.7653125 4.64195312 0.515625 3.91015625 C0 2 0 2 0 0 Z " fill="#3C4F79" transform="translate(515,642)"/>
<path d="M0 0 C0.66 1.65 1.32 3.3 2 5 C1.34 5.66 0.68 6.32 0 7 C-1.65 5.02 -3.3 3.04 -5 1 C-2 0 -2 0 0 0 Z " fill="#E13239" transform="translate(1053,601)"/>
<path d="M0 0 C1.32 0.66 2.64 1.32 4 2 C2.72536799 4.54926402 1.56582957 4.86801636 -1 6 C-1.99 6.33 -2.98 6.66 -4 7 C-2.79618552 4.50638429 -1.54571278 2.31856917 0 0 Z " fill="#D3DFEB" transform="translate(429,599)"/>
<path d="M0 0 C0.66 0 1.32 0 2 0 C0.6302836 3.99500618 -1.25722422 6.80009492 -4 10 C-3.67 7.69 -3.34 5.38 -3 3 C-2.01 2.67 -1.02 2.34 0 2 C0 1.34 0 0.68 0 0 Z " fill="#213565" transform="translate(368,694)"/>
<path d="M0 0 C1.32 0.66 2.64 1.32 4 2 C0.535 4.97 0.535 4.97 -3 8 C-3.33 7.01 -3.66 6.02 -4 5 C-3.34 4.67 -2.68 4.34 -2 4 C-0.86649466 1.98330173 -0.86649466 1.98330173 0 0 Z " fill="#DF3038" transform="translate(1189,613)"/>
<path d="M0 0 C0 3.23655184 -0.6550847 4.78752639 -2 7.6875 C-2.37125 8.49574219 -2.7425 9.30398438 -3.125 10.13671875 C-3.41375 10.75160156 -3.7025 11.36648438 -4 12 C-4.33 12 -4.66 12 -5 12 C-4.67 9.69 -4.34 7.38 -4 5 C-3.34 5 -2.68 5 -2 5 C-2 3.68 -2 2.36 -2 1 C-1.34 0.67 -0.68 0.34 0 0 Z " fill="#FDCCCB" transform="translate(785,568)"/>
<path d="M0 0 C1.15224028 0.92961422 2.29659176 1.8690125 3.4375 2.8125 C4.07558594 3.33457031 4.71367188 3.85664062 5.37109375 4.39453125 C7 6 7 6 8 9 C7.34 9 6.68 9 6 9 C5.34 8.34 4.68 7.68 4 7 C3.29875 6.54625 2.5975 6.0925 1.875 5.625 C1.25625 5.08875 0.6375 4.5525 0 4 C0 2.68 0 1.36 0 0 Z " fill="#E04D54" transform="translate(1081,567)"/>
<path d="M0 0 C0 0.66 0 1.32 0 2 C-0.99 2.33 -1.98 2.66 -3 3 C-4.70586575 4.62652316 -6.3777546 6.29006566 -8 8 C-8.66 7.67 -9.32 7.34 -10 7 C-3.18421053 0 -3.18421053 0 0 0 Z " fill="#3B4F77" transform="translate(244,552)"/>
<path d="M0 0 C2.97 0.495 2.97 0.495 6 1 C6.33 2.32 6.66 3.64 7 5 C4.0625 4.1875 4.0625 4.1875 1 3 C0.67 2.01 0.34 1.02 0 0 Z " fill="#354772" transform="translate(584,704)"/>
<path d="M0 0 C2.475 0.495 2.475 0.495 5 1 C5 1.66 5 2.32 5 3 C5.99 3.33 6.98 3.66 8 4 C7.67 4.99 7.34 5.98 7 7 C6.34 7 5.68 7 5 7 C5 6.34 5 5.68 5 5 C4.34 5 3.68 5 3 5 C1.375 3.625 1.375 3.625 0 2 C0 1.34 0 0.68 0 0 Z " fill="#29426C" transform="translate(571,694)"/>
<path d="M0 0 C2.64752004 2.57784846 4.94432065 4.91648098 7 8 C5.68 8.33 4.36 8.66 3 9 C2 6 1 3 0 0 Z " fill="#DD363F" transform="translate(1095,583)"/>
<path d="M0 0 C0.66 0 1.32 0 2 0 C2.33 1.32 2.66 2.64 3 4 C-0.75 7 -0.75 7 -3 7 C-3.33 6.01 -3.66 5.02 -4 4 C-2.68 4 -1.36 4 0 4 C-0.33 3.01 -0.66 2.02 -1 1 C-0.67 0.67 -0.34 0.34 0 0 Z " fill="#E32833" transform="translate(969,582)"/>
<path d="M0 0 C0.33 0.99 0.66 1.98 1 3 C-1.475 4.485 -1.475 4.485 -4 6 C-4.33 5.34 -4.66 4.68 -5 4 C-4.67 3.01 -4.34 2.02 -4 1 C-1.9375 0.3125 -1.9375 0.3125 0 0 Z " fill="#0E275B" transform="translate(749,704)"/>
<path d="M0 0 C2.31 1.98 4.62 3.96 7 6 C5.68 6.33 4.36 6.66 3 7 C0 2.25 0 2.25 0 0 Z " fill="#FBC9C7" transform="translate(1081,640)"/>
<path d="M0 0 C1.98 0 3.96 0 6 0 C3.525 3.465 3.525 3.465 1 7 C-0.0625 5.1875 -0.0625 5.1875 -1 3 C-0.67 2.01 -0.34 1.02 0 0 Z " fill="#E12D37" transform="translate(1177,625)"/>
<path d="M0 0 C0.99 0.33 1.98 0.66 3 1 C0.69 3.64 -1.62 6.28 -4 9 C-4.33 8.01 -4.66 7.02 -5 6 C-4.34 6 -3.68 6 -3 6 C-2.67 5.01 -2.34 4.02 -2 3 C-1.34 3 -0.68 3 0 3 C0 2.01 0 1.02 0 0 Z " fill="#D62F35" transform="translate(1198,604)"/>
<path d="M0 0 C0.66 1.32 1.32 2.64 2 4 C1.01 4.99 0.02 5.98 -1 7 C-1.66 6.67 -2.32 6.34 -3 6 C-3 4.68 -3 3.36 -3 2 C-2.01 1.34 -1.02 0.68 0 0 Z " fill="#E33B43" transform="translate(1158,580)"/>
<path d="M0 0 C7.71428571 4 7.71428571 4 9 8 C6.69 7.01 4.38 6.02 2 5 C2 4.01 2 3.02 2 2 C1.34 2 0.68 2 0 2 C0 1.34 0 0.68 0 0 Z " fill="#3F537C" transform="translate(459,560)"/>
<path d="M0 0 C0.33 0.99 0.66 1.98 1 3 C0.01 3.33 -0.98 3.66 -2 4 C-2.73323796 6.01508358 -2.73323796 6.01508358 -3 8 C-4.32 8.33 -5.64 8.66 -7 9 C-5.76465298 5.29395893 -3.80264776 3.66251537 -1 1 C-0.67 0.67 -0.34 0.34 0 0 Z " fill="#F7B9B7" transform="translate(1247,552)"/>
<path d="M0 0 C3 1.8125 3 1.8125 6 4 C6 4.99 6 5.98 6 7 C3.53199953 5.84826645 1.95216435 4.95216435 0 3 C0 2.01 0 1.02 0 0 Z " fill="#162A5B" transform="translate(104,552)"/>
<path d="M0 0 C0.75 1.625 0.75 1.625 1 4 C-0.9375 7.25 -0.9375 7.25 -3 10 C-3.75 8.375 -3.75 8.375 -4 6 C-2.0625 2.75 -2.0625 2.75 0 0 Z " fill="#132856" transform="translate(405,633)"/>
<path d="M0 0 C0.6875 1.75 0.6875 1.75 1 4 C-0.3125 6.25 -0.3125 6.25 -2 8 C-2.66 8 -3.32 8 -4 8 C-2.87548273 5.0280615 -1.77706209 2.66559313 0 0 Z " fill="#42517C" transform="translate(561,586)"/>
<path d="M0 0 C1.98 0.495 1.98 0.495 4 1 C2.515 3.475 2.515 3.475 1 6 C0.34 5.67 -0.32 5.34 -1 5 C-0.67 3.35 -0.34 1.7 0 0 Z " fill="#E22934" transform="translate(1233,562)"/>
<path d="M0 0 C0.33 0.99 0.66 1.98 1 3 C-0.65 4.65 -2.3 6.3 -4 8 C-4.66 7.67 -5.32 7.34 -6 7 C-4.02 4.69 -2.04 2.38 0 0 Z " fill="#E26167" transform="translate(1182,552)"/>
<path d="M0 0 C0.99 0.33 1.98 0.66 3 1 C1.02 3.97 1.02 3.97 -1 7 C-2 4 -2 4 -2 1 C-1.34 0.67 -0.68 0.34 0 0 Z " fill="#DC3137" transform="translate(1229,568)"/>
<path d="M0 0 C-1.24420647 0.5345256 -2.49570936 1.05208611 -3.75 1.5625 C-4.44609375 1.85253906 -5.1421875 2.14257812 -5.859375 2.44140625 C-8.30012784 3.07831803 -9.6403655 2.80248831 -12 2 C-7.75950782 -0.82699479 -4.85416215 -1.37070821 0 0 Z " fill="#DA4952" transform="translate(812,553)"/>
<path d="M0 0 C0.66 0 1.32 0 2 0 C2 0.99 2 1.98 2 3 C1.01 3.33 0.02 3.66 -1 4 C-2.66710346 5.49985609 -2.66710346 5.49985609 -4 7 C-4.66 6.67 -5.32 6.34 -6 6 C-5.01 5.67 -4.02 5.34 -3 5 C-1.8499169 3.03327085 -1.8499169 3.03327085 -1 1 C-0.67 0.67 -0.34 0.34 0 0 Z " fill="#54658B" transform="translate(414,683)"/>
<path d="M0 0 C0.75 1.75 0.75 1.75 1 4 C-0.9375 6.25 -0.9375 6.25 -3 8 C-3.33 7.34 -3.66 6.68 -4 6 C-2.68 4.02 -1.36 2.04 0 0 Z " fill="#465782" transform="translate(321,680)"/>
<path d="M0 0 C0.99 0.33 1.98 0.66 3 1 C1.35 2.65 -0.3 4.3 -2 6 C-2.33 5.01 -2.66 4.02 -3 3 C-2.01 2.01 -1.02 1.02 0 0 Z " fill="#DD2A33" transform="translate(1166,640)"/>
<path d="M0 0 C-1.485 1.485 -1.485 1.485 -3 3 C-6 2 -6 2 -9 0 C-5.62182575 -0.84454356 -3.32534757 -1.10844919 0 0 Z " fill="#2E4572" transform="translate(617,553)"/>
</svg>
